<?xml version="1.0" encoding="UTF-8"?> <svg xmlns="http://www.w3.org/2000/svg" xmlns:xlink="http://www.w3.org/1999/xlink" width="123pt" height="148pt" viewBox="0 0 123 148" version="1.1"><g id="surface1"><path style=" stroke:none;fill-rule:nonzero;fill:rgb(3.921569%,13.333333%,80%);fill-opacity:1;" d="M 16.820312 120.566406 C 16.097656 120.566406 15.375 121.289062 15.375 122.007812 C 15.375 122.730469 16.097656 123.453125 16.820312 123.453125 L 20.078125 123.453125 L 20.441406 123.816406 C 20.441406 124.175781 20.441406 124.175781 20.078125 124.175781 L 15.011719 124.175781 C 15.011719 124.175781 14.652344 124.175781 14.652344 123.816406 C 14.652344 123.453125 14.652344 123.453125 15.011719 123.453125 L 15.738281 123.453125 C 15.375 123.09375 14.652344 122.730469 14.652344 122.007812 C 14.652344 121.289062 15.011719 120.566406 15.738281 120.203125 C 15.011719 119.84375 14.652344 119.121094 14.652344 118.398438 C 14.652344 117.316406 15.375 116.234375 16.820312 116.234375 L 20.078125 116.234375 C 20.078125 116.234375 20.441406 116.234375 20.441406 116.59375 C 20.441406 116.957031 20.441406 116.957031 20.078125 116.957031 L 16.820312 116.957031 C 15.738281 116.957031 15.375 117.679688 15.375 118.398438 C 15.375 119.121094 16.097656 119.84375 16.820312 119.84375 L 20.078125 119.84375 C 20.441406 119.84375 20.441406 120.203125 20.441406 120.203125 C 20.441406 120.203125 20.441406 120.566406 20.078125 120.566406 Z M 16.820312 120.566406 "></path><path style=" stroke:none;fill-rule:nonzero;fill:rgb(3.921569%,13.333333%,80%);fill-opacity:1;" d="M 18.269531 114.789062 L 15.011719 114.789062 C 15.011719 114.789062 14.652344 114.789062 14.652344 114.429688 C 14.652344 114.066406 14.652344 114.066406 15.011719 114.066406 L 18.269531 114.066406 C 18.992188 114.066406 19.714844 113.347656 19.714844 112.625 C 19.714844 111.902344 18.992188 111.179688 18.269531 111.179688 L 15.011719 111.179688 L 14.652344 110.820312 C 14.652344 110.457031 14.652344 110.457031 15.011719 110.457031 L 18.269531 110.457031 C 19.355469 110.457031 20.441406 111.542969 20.441406 112.625 C 20.441406 113.707031 19.355469 114.789062 18.269531 114.789062 Z M 18.269531 114.789062 "></path><path style=" stroke:none;fill-rule:nonzero;fill:rgb(3.921569%,13.333333%,80%);fill-opacity:1;" d="M 19.714844 105.042969 C 19.714844 105.042969 19.714844 104.683594 20.078125 104.683594 C 20.078125 104.683594 20.441406 104.683594 20.441406 105.042969 L 20.441406 108.652344 C 20.441406 109.015625 20.441406 109.015625 20.078125 109.015625 L 19.714844 109.015625 L 15.375 106.125 L 15.375 108.652344 C 15.375 108.652344 15.375 109.015625 15.011719 109.015625 C 14.652344 109.015625 14.652344 109.015625 14.652344 108.652344 L 14.652344 105.40625 C 14.652344 105.40625 14.652344 105.042969 15.011719 105.042969 L 15.375 105.042969 L 19.714844 107.933594 Z M 19.714844 105.042969 "></path><path style=" stroke:none;fill-rule:nonzero;fill:rgb(3.921569%,13.333333%,80%);fill-opacity:1;" d="M 12.480469 102.878906 C 12.84375 102.878906 12.84375 103.238281 12.84375 103.238281 C 12.84375 103.601562 12.480469 103.960938 12.480469 103.960938 C 12.480469 103.960938 12.117188 103.601562 12.117188 103.238281 C 12.117188 102.878906 12.117188 102.878906 12.480469 102.878906 Z M 15.011719 102.878906 L 20.078125 102.878906 L 20.441406 103.238281 C 20.441406 103.601562 20.441406 103.601562 20.078125 103.601562 L 15.011719 103.601562 C 15.011719 103.601562 14.652344 103.601562 14.652344 103.238281 Z M 15.011719 102.878906 "></path><path style=" stroke:none;fill-rule:nonzero;fill:rgb(3.921569%,13.333333%,80%);fill-opacity:1;" d="M 20.078125 101.796875 L 17.546875 100.351562 L 15.011719 101.796875 C 14.652344 101.796875 14.652344 101.433594 14.652344 101.433594 L 14.652344 101.074219 L 16.820312 99.628906 L 14.652344 98.183594 C 14.652344 98.183594 14.652344 98.183594 14.652344 97.824219 C 14.652344 97.824219 15.011719 97.464844 15.011719 97.464844 L 17.546875 98.90625 L 20.078125 97.464844 C 20.441406 97.464844 20.441406 97.824219 20.441406 97.824219 L 20.441406 98.183594 L 18.269531 99.628906 L 20.441406 101.074219 C 20.441406 101.074219 20.441406 101.074219 20.441406 101.433594 C 20.441406 101.433594 20.441406 101.796875 20.078125 101.796875 Z M 20.078125 101.796875 "></path><path style=" stroke:none;fill-rule:nonzero;fill:rgb(3.921569%,13.333333%,80%);fill-opacity:1;" d="M 20.078125 95.660156 C 20.441406 95.660156 20.800781 96.019531 20.800781 96.378906 C 20.800781 96.742188 20.441406 97.101562 20.078125 97.101562 C 19.714844 97.101562 19.355469 96.742188 19.355469 96.378906 C 19.355469 96.019531 19.714844 95.660156 20.078125 95.660156 Z M 20.078125 95.660156 "></path><path style=" stroke:none;fill-rule:nonzero;fill:rgb(3.921569%,13.333333%,80%);fill-opacity:1;" d="M 12.480469 93.132812 C 12.84375 93.132812 13.203125 93.492188 13.203125 93.855469 C 13.203125 94.214844 12.84375 94.574219 12.480469 94.574219 C 12.117188 94.574219 12.117188 94.214844 12.117188 93.855469 C 12.117188 93.492188 12.117188 93.132812 12.480469 93.132812 Z M 15.011719 93.132812 L 20.078125 93.132812 C 20.441406 93.132812 20.441406 93.492188 20.441406 93.855469 C 20.441406 94.214844 20.078125 94.574219 20.078125 94.574219 L 15.011719 94.574219 C 14.652344 94.574219 14.652344 94.214844 14.652344 93.855469 C 14.652344 93.492188 15.011719 93.132812 15.011719 93.132812 Z M 15.011719 93.132812 "></path><path style=" stroke:none;fill-rule:nonzero;fill:rgb(3.921569%,13.333333%,80%);fill-opacity:1;" d="M 17.183594 86.996094 L 18.269531 86.996094 C 19.714844 86.996094 20.800781 88.078125 20.800781 89.523438 C 20.800781 90.964844 19.714844 92.046875 18.269531 92.046875 L 17.183594 92.046875 C 15.738281 92.046875 14.652344 90.964844 14.652344 89.523438 C 14.652344 88.078125 15.738281 86.996094 17.183594 86.996094 Z M 17.183594 88.4375 C 16.460938 88.4375 16.097656 89.160156 16.097656 89.523438 C 16.097656 90.242188 16.820312 90.605469 17.183594 90.605469 L 18.269531 90.605469 C 18.992188 90.605469 19.714844 90.242188 19.714844 89.523438 C 19.714844 88.800781 18.992188 88.4375 18.269531 88.4375 Z M 17.183594 88.4375 "></path><path style=" stroke:none;fill-rule:nonzero;fill:rgb(3.921569%,13.333333%,80%);fill-opacity:1;" d="M 61.320312 147.277344 C 52.636719 147.277344 45.402344 140.058594 45.402344 131.394531 L 45.402344 88.078125 C 45.402344 84.828125 42.867188 81.941406 39.25 81.941406 C 35.632812 81.941406 33.101562 84.46875 33.101562 88.078125 L 33.101562 125.257812 C 33.101562 133.921875 25.867188 141.140625 17.183594 141.140625 C 8.5 141.140625 1.265625 133.921875 1.265625 125.257812 L 1.265625 61.003906 C 1.265625 44.761719 7.054688 29.960938 18.632812 18.410156 C 29.84375 6.859375 45.039062 0.722656 61.320312 0.722656 C 94.601562 0.722656 121.734375 27.796875 121.734375 61.003906 L 121.734375 74.722656 L 121.371094 100.351562 C 121.371094 109.015625 114.136719 116.234375 105.453125 116.234375 C 96.773438 116.234375 89.535156 109.015625 89.535156 100.351562 L 89.535156 73.640625 C 89.535156 70.390625 87.003906 67.503906 83.386719 67.503906 C 79.769531 67.503906 77.238281 70.027344 77.238281 73.640625 L 77.238281 131.035156 C 77.238281 140.058594 70.363281 147.277344 61.320312 147.277344 Z M 39.25 76.164062 C 45.761719 76.164062 51.191406 81.582031 51.191406 88.078125 L 51.191406 131.394531 C 51.191406 136.808594 55.53125 141.503906 61.320312 141.503906 C 66.746094 141.503906 71.449219 137.171875 71.449219 131.394531 L 71.449219 73.640625 C 71.449219 67.140625 76.875 61.726562 83.386719 61.726562 C 89.898438 61.726562 95.324219 67.140625 95.324219 73.640625 L 95.324219 100.351562 C 95.324219 105.765625 99.667969 110.457031 105.453125 110.457031 C 110.882812 110.457031 115.582031 106.125 115.582031 100.351562 L 115.945312 74.722656 L 115.945312 61.003906 C 115.945312 31.042969 91.707031 6.859375 61.679688 6.859375 C 31.65625 6.496094 7.417969 31.042969 7.417969 61.003906 L 7.417969 125.257812 C 7.417969 130.671875 11.757812 135.367188 17.546875 135.367188 C 22.972656 135.367188 27.675781 131.035156 27.675781 125.257812 L 27.675781 88.078125 C 27.3125 81.582031 32.738281 76.164062 39.25 76.164062 Z M 39.25 76.164062 "></path></g></svg> 